<?xml version="1.0" standalone="no"?>
<!DOCTYPE svg PUBLIC "-//W3C//DTD SVG 20010904//EN"
 "http://www.w3.org/TR/2001/REC-SVG-20010904/DTD/svg10.dtd">
<svg version="1.0" xmlns="http://www.w3.org/2000/svg"
 width="16.000000pt" height="16.000000pt" viewBox="0 0 16.000000 16.000000"
 preserveAspectRatio="xMidYMid meet">
<metadata>
Created by potrace 1.11, written by Peter Selinger 2001-2013
</metadata>
<g transform="translate(0.000000,16.000000) scale(0.002807,-0.002807)"
fill="#000000" stroke="none">
<path d="M1638 5338 c-185 -18 -320 -115 -407 -292 -22 -44 -45 -101 -52 -126
-7 -25 -14 -49 -15 -55 -2 -5 -5 -23 -9 -40 -3 -16 -8 -40 -10 -53 -18 -79
-25 -340 -12 -477 8 -91 22 -199 32 -250 3 -16 10 -52 15 -80 5 -27 11 -59 14
-70 9 -40 18 -80 22 -96 2 -9 -1 -16 -8 -16 -19 0 -200 -59 -303 -99 -143 -56
-398 -184 -425 -214 -3 -4 -23 -17 -45 -30 -22 -13 -42 -26 -45 -29 -3 -4 -25
-22 -50 -42 -224 -180 -334 -402 -296 -599 46 -237 283 -483 649 -669 131 -66
224 -105 390 -161 75 -26 135 -49 132 -51 -4 -5 -29 -111 -41 -177 -11 -61
-24 -142 -29 -187 -4 -27 -9 -66 -11 -85 -12 -87 -10 -378 3 -463 53 -356 203
-562 450 -614 37 -8 188 -8 238 -1 43 6 160 35 185 45 8 3 20 7 26 8 67 15
321 151 454 244 68 47 254 196 300 240 71 69 64 67 107 24 21 -21 65 -60 98
-88 33 -27 67 -56 75 -64 67 -64 308 -223 435 -287 95 -48 249 -105 325 -119
73 -14 240 -13 293 2 206 57 340 216 406 482 11 42 22 95 25 119 3 23 9 61 12
83 13 89 8 336 -10 484 -11 86 -17 130 -21 149 -3 12 -7 35 -11 51 -3 17 -10
53 -16 80 -20 100 -25 93 87 129 195 64 462 186 583 267 24 16 47 29 52 29 4
0 10 3 12 8 2 4 30 27 63 51 128 95 245 229 297 341 82 175 66 337 -53 515
-121 181 -378 363 -704 500 -116 49 -306 115 -329 115 -36 0 -38 26 -12 152
14 68 27 143 30 168 3 25 8 56 11 70 25 130 22 492 -5 615 -5 22 -11 51 -13
65 -17 90 -79 233 -136 310 -32 44 -114 120 -130 120 -6 0 -11 3 -11 8 0 11
-107 51 -167 62 -72 13 -204 4 -293 -20 -41 -12 -82 -23 -90 -25 -8 -2 -15 -4
-15 -5 0 -1 -8 -3 -17 -5 -30 -6 -211 -95 -297 -147 -144 -86 -314 -215 -442
-336 -82 -77 -78 -76 -131 -29 -45 41 -120 106 -182 158 -17 14 -74 56 -126
92 -52 37 -100 70 -106 75 -10 7 -19 12 -93 55 -126 72 -278 135 -395 164 -65
16 -200 27 -258 21z m137 -243 c238 -35 588 -238 867 -505 l37 -35 -40 -45
c-23 -25 -59 -65 -80 -90 -22 -25 -45 -52 -52 -60 -8 -8 -44 -53 -81 -100 -38
-47 -77 -95 -87 -108 -10 -12 -19 -26 -19 -31 0 -5 -4 -11 -8 -13 -5 -1 -32
-36 -61 -75 -48 -67 -56 -73 -89 -74 -20 0 -46 -2 -57 -4 -11 -2 -42 -6 -70
-9 -86 -9 -137 -16 -230 -32 -49 -9 -103 -18 -120 -20 -30 -4 -77 -13 -201
-39 -36 -8 -33 -13 -58 105 -20 94 -25 125 -32 175 -3 22 -7 45 -9 52 -8 23
-19 208 -19 308 0 110 10 225 24 274 5 17 6 31 4 31 -3 0 -2 6 3 13 4 6 9 20
10 31 7 45 66 151 107 190 44 44 67 53 146 62 24 3 46 7 48 9 2 2 9 2 15 0 7
-2 30 -7 52 -10z m2311 -3 c115 -33 205 -211 230 -457 8 -77 8 -294 -1 -365
-7 -68 -15 -123 -19 -145 -2 -11 -7 -42 -11 -70 -5 -27 -9 -52 -10 -55 0 -3
-7 -36 -14 -73 -8 -38 -19 -71 -26 -74 -7 -2 -57 5 -112 16 -105 22 -124 25
-218 41 -33 5 -69 12 -80 14 -11 2 -49 7 -85 11 -36 4 -74 9 -85 11 -11 2 -51
6 -89 9 -57 4 -73 9 -87 28 -10 12 -52 69 -95 127 -83 113 -163 212 -286 355
-43 49 -78 92 -77 95 1 9 172 158 255 221 215 166 459 292 605 314 24 4 45 8
47 10 7 7 121 -3 158 -13z m-1224 -721 c2 -5 21 -29 43 -53 35 -37 128 -147
169 -198 7 -9 31 -40 54 -69 39 -49 54 -80 33 -67 -9 6 -366 10 -531 7 -52 -1
-99 -2 -103 -2 -8 1 98 143 138 186 11 12 55 63 98 113 76 89 92 102 99 83z
m268 -625 c96 -4 184 -8 195 -10 11 -3 24 -5 28 -5 20 -2 278 -424 407 -666
109 -206 112 -212 99 -237 -8 -13 -14 -25 -14 -28 0 -3 -9 -21 -19 -40 -11
-19 -40 -75 -66 -125 -80 -151 -85 -160 -92 -163 -5 -2 -8 -8 -8 -12 0 -16
-233 -402 -285 -473 -20 -27 -23 -28 -155 -34 -253 -11 -874 -5 -885 9 -23 30
-125 190 -125 197 0 5 -4 11 -8 13 -17 7 -195 316 -306 530 l-74 144 30 59
c79 159 200 383 237 440 15 22 30 48 34 57 3 10 40 70 82 133 41 64 75 118 75
121 0 3 5 10 10 17 6 7 19 23 29 37 22 28 14 27 271 36 102 4 186 7 187 8 3 2
152 -1 353 -8z m-1121 -67 c-5 -11 -23 -39 -39 -63 -17 -24 -30 -46 -30 -49 0
-3 -22 -41 -48 -84 -27 -43 -52 -85 -55 -93 -4 -8 -18 -33 -30 -55 -13 -22
-40 -71 -61 -110 -21 -38 -41 -74 -44 -79 -7 -13 -25 25 -86 185 -53 142 -99
280 -94 284 2 2 39 10 83 19 108 22 124 25 165 31 20 3 47 8 60 10 14 3 45 8
70 11 25 3 46 7 47 8 1 1 18 2 37 3 32 1 34 -1 25 -18z m1790 6 c19 -3 43 -8
55 -10 12 -3 35 -7 51 -9 53 -7 109 -17 145 -26 19 -5 53 -12 75 -16 22 -3 42
-8 44 -10 2 -2 -1 -23 -8 -46 -14 -49 -100 -288 -109 -303 -4 -5 -7 -15 -8
-21 -3 -17 -42 -104 -47 -104 -3 0 -39 62 -80 138 -42 75 -108 189 -146 252
-39 63 -77 127 -86 142 l-15 27 47 -4 c27 -3 63 -7 82 -10z m-2504 -166 c-3
-4 -1 -10 5 -14 5 -3 10 -13 10 -22 0 -18 105 -310 142 -393 104 -235 106
-242 95 -269 -6 -14 -14 -28 -17 -31 -3 -3 -10 -18 -16 -35 -7 -16 -44 -111
-84 -210 -40 -98 -73 -184 -75 -190 -1 -5 -5 -17 -8 -25 -4 -8 -19 -55 -35
-105 -19 -58 -34 -90 -43 -90 -16 1 -159 44 -174 54 -5 3 -15 6 -22 7 -7 1
-27 9 -44 18 -18 9 -36 16 -41 16 -18 0 -263 123 -332 167 -243 155 -386 332
-377 468 6 108 110 249 261 355 19 14 37 27 40 30 11 12 156 94 228 130 95 46
230 100 342 135 47 15 94 30 105 35 20 8 50 -14 40 -31z m3196 10 c102 -32
233 -81 244 -91 5 -4 15 -8 23 -8 37 0 327 -161 417 -231 39 -31 175 -165 175
-173 0 -4 11 -24 24 -45 48 -76 49 -157 1 -257 -22 -47 -37 -66 -115 -144
-156 -155 -371 -275 -707 -395 -91 -33 -124 -41 -131 -32 -5 7 -23 55 -41 107
-17 52 -36 104 -41 115 -5 11 -24 61 -44 110 -37 96 -116 280 -143 331 -16 31
-16 33 49 185 36 85 78 186 93 224 14 39 35 92 46 119 10 27 19 52 19 57 0 4
5 20 12 36 6 15 12 35 14 44 7 32 24 69 32 69 5 0 38 -9 73 -21z m-425 -1114
c67 -164 126 -335 116 -336 -4 0 -14 -2 -22 -4 -8 -2 -30 -6 -48 -9 -18 -4
-65 -13 -105 -22 -39 -8 -85 -17 -102 -19 -16 -2 -43 -6 -60 -9 -16 -2 -50 -7
-75 -11 -25 -4 -57 -9 -72 -11 -16 -2 -28 -1 -27 3 0 5 18 35 39 68 21 33 51
83 66 110 15 28 35 61 45 74 11 13 19 30 19 37 0 8 5 14 10 14 6 0 10 4 10 8
0 5 29 62 65 127 36 64 65 122 65 128 0 27 23 -17 76 -148z m-2281 -15 c47
-83 85 -154 85 -156 0 -3 9 -17 19 -32 10 -15 46 -71 80 -125 l60 -98 -57 5
c-31 3 -68 8 -82 10 -14 3 -42 7 -62 10 -21 3 -55 9 -75 12 -21 3 -82 14 -137
25 -54 10 -99 19 -101 19 -2 0 8 33 22 73 78 223 97 277 118 322 12 28 26 60
30 73 4 13 9 21 11 19 3 -3 43 -73 89 -157z m2476 -562 c0 -7 2 -20 4 -28 1
-8 7 -40 14 -70 6 -30 13 -68 16 -85 3 -16 7 -41 10 -55 3 -14 7 -50 10 -80 3
-30 8 -73 11 -95 6 -49 7 -307 0 -355 -32 -242 -97 -385 -203 -447 -44 -26
-56 -28 -143 -27 -89 0 -173 16 -240 46 -14 6 -41 18 -60 26 -19 9 -57 27 -85
41 -27 14 -60 30 -72 36 -13 5 -23 13 -23 18 0 4 -5 7 -11 7 -10 0 -129 77
-139 90 -3 4 -10 9 -17 11 -13 4 -192 153 -263 218 -33 31 -42 45 -35 55 6 8
57 70 114 137 86 102 222 279 326 424 15 20 31 29 55 31 48 3 117 11 214 24
74 10 101 14 179 26 15 2 41 6 58 8 17 3 42 7 57 11 39 8 73 15 107 21 17 3
46 9 65 13 49 12 50 12 51 -1z m-2748 -14 c18 -2 46 -7 62 -11 17 -4 32 -7 35
-8 18 -4 116 -19 195 -30 11 -2 56 -8 100 -14 45 -6 106 -14 135 -16 30 -3 64
-7 75 -9 11 -3 36 -5 56 -5 33 -1 40 -7 85 -70 61 -85 154 -208 184 -241 12
-14 34 -40 49 -59 30 -40 77 -94 144 -165 26 -28 47 -56 47 -62 0 -25 -244
-224 -390 -319 -141 -91 -314 -175 -393 -191 -10 -2 -27 -6 -37 -9 -39 -12
-67 -16 -137 -19 -89 -4 -161 18 -209 65 -39 38 -107 172 -119 234 -4 22 -9
50 -11 61 -15 81 -20 161 -18 276 3 192 6 220 49 463 3 17 10 44 15 60 6 17
11 42 12 57 2 22 6 27 20 22 10 -3 33 -7 51 -10z m1631 -166 c-21 -29 -43 -58
-49 -64 -5 -6 -21 -25 -35 -43 -45 -59 -136 -168 -171 -205 l-35 -37 -54 59
c-30 32 -64 70 -74 83 -11 13 -40 49 -66 79 -25 30 -67 82 -92 116 l-47 61
277 -1 c152 -1 299 1 327 4 27 3 52 5 54 3 2 -1 -14 -26 -35 -55z"/>
<path d="M2790 3353 c-213 -28 -404 -202 -436 -400 -43 -260 96 -495 341 -578
72 -24 196 -27 276 -5 345 90 488 504 272 786 -42 56 -46 60 -93 95 -45 33
-112 68 -160 84 -42 14 -155 24 -200 18z"/>
</g>
</svg>
